HIERARCHY
ROOT Hips
{
	OFFSET 0.000000 0.000000 0.000000
	CHANNELS 6 Xposition Yposition Zposition Zrotation Yrotation Xrotation 
	JOINT LHipJoint
	{
		OFFSET 0.000000 0.000000 0.000000
		CHANNELS 3 Zrotation Yrotation Xrotation
		JOINT LeftUpLeg
		{
			OFFSET 1.363060 -1.794630 0.839290
			CHANNELS 3 Zrotation Yrotation Xrotation
			JOINT LeftLeg
			{
				OFFSET 2.448110 -6.726130 0.000000
				CHANNELS 3 Zrotation Yrotation Xrotation
				JOINT LeftFoot
				{
					OFFSET 2.562200 -7.039590 0.000000
					CHANNELS 3 Zrotation Yrotation Xrotation
					JOINT LeftToeBase
					{
						OFFSET 0.157640 -0.433110 2.322550
						CHANNELS 3 Zrotation Yrotation Xrotation
						End Site
						{
							OFFSET 0.000000 0.000000 0.000000
						}
					}
				}
			}
		}
	}
	JOINT RHipJoint
	{
		OFFSET 0.000000 0.000000 0.000000
		CHANNELS 3 Zrotation Yrotation Xrotation
		JOINT RightUpLeg
		{
			OFFSET -1.305520 -1.794630 0.839290
			CHANNELS 3 Zrotation Yrotation Xrotation
			JOINT RightLeg
			{
				OFFSET -2.542530 -6.985550 0.000000
				CHANNELS 3 Zrotation Yrotation Xrotation
				JOINT RightFoot
				{
					OFFSET -2.568260 -7.056230 0.000000
					CHANNELS 3 Zrotation Yrotation Xrotation
					JOINT RightToeBase
					{
						OFFSET -0.164730 -0.452590 2.363150
						CHANNELS 3 Zrotation Yrotation Xrotation
						End Site
						{
							OFFSET 0.000000 0.000000 0.000000
						}
					}
				}
			}
		}
	}
}
MOTION
Frames: 33
Frame Time: 0.008333
-0.681305 15.269205 -2.359881 90.300008 85.076532 106.474432 -9.378189 1.212564 4.206926 -10.488609 -11.658935 -40.030231 -1.491939 2.715246 61.562563 2.049574 2.891714 -33.512488 -2.394000 0.000000 -47.298900 13.436493 -1.546325 -1.073377 -4.726708 -9.927033 -31.786965 -3.111324 -5.905048 88.859746 -1.159760 -5.412136 -14.898892 0.587100 -0.000000 -25.333200
-0.514817 15.329143 -2.327322 89.974759 85.078640 105.922995 -9.484718 1.284383 4.056807 -10.434841 -11.166933 -38.339686 -1.593903 2.602302 60.249795 2.046844 2.891935 -33.497260 -2.404300 0.000000 -47.498800 13.284668 -1.399671 -1.036629 -4.591632 -9.768858 -32.625116 -3.001162 -5.857330 88.116353 -1.144183 -5.250279 -14.885793 0.571000 -0.000000 -25.344200
-0.343871 15.401381 -2.289999 89.007174 85.074014 104.772825 -9.577272 1.364341 3.942014 -10.353956 -10.675436 -36.601426 -1.696782 2.464056 58.663021 2.043761 2.939425 -33.325953 -2.420499 -0.000000 -47.444100 13.130201 -1.255803 -0.955982 -4.463129 -9.570180 -33.496673 -2.875122 -5.791948 87.208385 -1.132566 -5.106171 -14.820967 0.552800 -0.000000 -25.408401
-0.168276 15.485941 -2.247820 87.388889 85.062081 103.009532 -9.657869 1.452896 3.861443 -10.240467 -10.186639 -34.799703 -1.798110 2.300637 56.791555 2.035836 3.022822 -32.972569 -2.434100 -0.000000 -47.184500 12.972257 -1.115470 -0.835001 -4.335734 -9.332922 -34.381789 -2.734665 -5.708156 86.127858 -1.127722 -4.998093 -14.700146 0.534399 0.000000 -25.470700
0.012212 15.582943 -2.200841 85.085365 85.041747 100.591117 -9.730835 1.549958 3.810677 -10.088575 -9.696017 -32.916990 -1.894641 2.113086 54.626725 2.016669 3.124309 -32.399934 -2.431600 0.000000 -46.833000 12.808471 -0.980572 -0.678540 -4.201025 -9.053079 -35.253433 -2.581562 -5.604871 84.862220 -1.132649 -4.945737 -14.511129 0.516700 -0.000000 -25.588700
0.197575 15.692006 -2.149097 82.042428 85.007216 97.450927 -9.800843 1.656820 3.783798 -9.897249 -9.192639 -30.937540 -1.982350 1.904144 52.169069 1.978599 3.221384 -31.561939 -2.397000 0.000000 -46.567700 12.637463 -0.853320 -0.491871 -4.053933 -8.725264 -36.082262 -2.417329 -5.481909 83.405343 -1.149235 -4.960686 -14.267135 0.501200 0.000000 -25.637400
0.387687 15.812559 -2.092709 78.198739 84.949450 93.516198 -9.873803 1.775237 3.773687 -9.666052 -8.661432 -28.853038 -2.056412 1.678392 49.426916 1.913468 3.290430 -30.403053 -2.312900 0.000000 -46.602899 12.457385 -0.735924 -0.280166 -3.888266 -8.338955 -36.838042 -2.243793 -5.338724 81.750745 -1.178818 -5.050381 -13.978995 0.488300 0.000000 -25.564300
0.582504 15.943834 -2.031885 73.511405 84.854793 88.736722 -9.956245 1.907725 3.772325 -9.395688 -8.084860 -26.665264 -2.111589 1.442707 46.417884 1.814012 3.310804 -28.861873 -2.165000 -0.000001 -47.162699 12.266258 -0.629217 -0.048566 -3.698599 -7.880394 -37.494178 -2.063204 -5.174569 79.892073 -1.221870 -5.216164 -13.652703 0.476600 0.000000 -25.400100
0.781686 16.084474 -1.966743 68.015989 84.704416 83.139180 -10.051627 2.059777 3.773948 -9.090271 -7.445911 -24.388253 -2.142777 1.206423 43.176773 1.675643 3.266341 -26.880559 -1.944800 -0.000000 -48.443300 12.065973 -0.532894 0.199965 -3.483309 -7.338584 -38.030240 -1.877845 -4.989686 77.833123 -1.277069 -5.446690 -13.312027 0.465100 -0.000000 -25.041200
0.984868 16.232995 -1.897418 61.858780 84.477767 76.867188 -10.161211 2.236891 3.772801 -8.753173 -6.730305 -22.049911 -2.145920 0.980772 39.749363 1.498086 3.148368 -24.409342 -1.653100 -0.000000 -50.572400 11.859990 -0.445046 0.462930 -3.241011 -6.703840 -38.433403 -1.690355 -4.784793 75.576815 -1.341928 -5.723768 -12.965622 0.451300 0.000000 -24.505000
1.191590 16.387685 -1.824055 55.320412 84.158922 70.202226 -10.282383 2.444051 3.764540 -8.387784 -5.929363 -19.689614 -2.118710 0.777831 36.196922 1.286904 2.955206 -21.417979 -1.302400 0.000000 -53.564500 11.654662 -0.364028 0.739351 -2.971368 -5.972465 -38.700632 -1.503179 -4.562241 73.129650 -1.412424 -6.020677 -12.617183 0.431900 -0.000000 -23.829800
1.401311 16.546686 -1.746712 48.772619 83.740632 63.520131 -10.409918 2.683021 3.745716 -7.997364 -5.041092 -17.355451 -2.061609 0.608776 32.593335 1.053877 2.689870 -17.904481 -0.917300 0.000000 -57.284500 11.457192 -0.290437 1.029036 -2.675949 -5.148724 -38.836600 -1.318327 -4.326093 70.499100 -1.483055 -6.304361 -12.258432 0.403300 0.000000 -23.090100
1.613434 16.708100 -1.665521 42.580468 83.228245 57.193100 -10.539009 2.950669 3.713805 -7.585395 -4.068884 -15.100936 -1.978375 0.482145 29.024002 0.815964 2.356265 -13.904198 -0.532900 0.000000 -61.441000 11.272310 -0.228118 1.332005 -2.357124 -4.245636 -38.855091 -1.137061 -4.081582 67.694826 -1.547139 -6.538399 -11.870858 0.361100 0.000000 -22.385900
1.827218 16.870212 -1.580607 36.997489 82.634965 51.480037 -10.667895 3.239207 3.666677 -7.155909 -3.021029 -12.973328 -1.875626 0.402442 25.572894 0.593197 1.960952 -9.487475 -0.190500 0.000000 -65.635900 11.099811 -0.182820 1.647009 -2.018686 -3.280037 -38.769700 -0.960469 -3.832996 64.723059 -1.597336 -6.688726 -11.415416 0.299701 0.000000 -21.913900
2.041873 17.031264 -1.492245 32.135185 81.978649 46.499102 -10.798281 3.538211 3.603147 -6.711103 -1.903458 -11.019570 -1.761765 0.369538 22.327234 0.405270 1.508248 -4.765808 0.067900 0.000000 -69.430400 10.935388 -0.160140 1.972020 -1.661399 -2.271974 -38.598162 -0.789103 -3.583128 61.593288 -1.626052 -6.725069 -10.849919 0.214400 0.000001 -21.838600
2.256600 17.189691 -1.400766 27.978026 81.275204 42.239486 -10.933547 3.836393 3.522126 -6.251659 -0.720977 -9.275710 -1.644991 0.378388 19.364811 0.268804 1.007596 0.115241 0.207500 0.000000 -72.435100 10.772916 -0.163345 2.303344 -1.283164 -1.240156 -38.354751 -0.623277 -3.332746 58.313532 -1.626167 -6.625680 -10.125971 0.102400 0.000000 -22.338400
2.470606 17.344023 -1.306589 24.441934 80.536434 38.619879 -11.076164 4.122880 3.423041 -5.778045 0.518896 -7.763478 -1.531574 0.419607 16.750838 0.194689 0.482099 4.979746 0.210999 0.000000 -74.357100 10.607263 -0.193259 2.636110 -0.879225 -0.201493 -38.049050 -0.462643 -3.081565 54.892014 -1.591924 -6.380190 -9.199738 -0.035900 0.000000 -23.537000
2.683095 17.492978 -1.210199 21.427017 79.769761 35.541061 -11.225750 4.387902 3.306358 -5.294088 1.796735 -6.485941 -1.424916 0.481170 14.531960 0.186013 -0.019240 9.634197 0.091099 -0.000000 -75.016400 10.435857 -0.248673 2.964293 -0.444904 0.828370 -37.684502 -0.306021 -2.829152 51.335452 -1.519652 -5.991476 -8.032563 -0.195201 0.000000 -25.561400
2.893391 17.635244 -1.111973 18.856695 78.979495 32.924779 -11.377910 4.624019 3.174038 -4.810698 3.077120 -5.426180 -1.325760 0.551005 12.736056 0.237191 -0.414856 13.884609 -0.100000 -0.000000 -74.345400 10.259445 -0.326659 3.280979 0.020393 1.831781 -37.262402 -0.149256 -2.576351 47.661810 -1.408158 -5.468578 -6.633427 -0.361900 0.000000 -28.192900
3.100862 17.769754 -1.012190 16.676842 78.168401 30.713295 -11.525153 4.826714 3.029545 -4.344550 4.307073 -4.549050 -1.232507 0.619701 11.367823 0.335951 -0.592599 17.565503 -0.271500 -0.000000 -72.390600 10.081223 -0.423022 3.579326 0.513406 2.793061 -36.779569 0.012717 -2.324283 43.891472 -1.259708 -4.833237 -5.025467 -0.519500 0.000000 -31.204200
3.305115 17.895401 -0.911024 14.859547 77.339515 28.872884 -11.658282 4.994891 2.876971 -3.917705 5.431244 -3.811465 -1.142685 0.681826 10.417972 0.466827 -0.435884 20.555925 -0.314700 -0.000000 -69.314300 9.906487 -0.532602 3.854326 1.024645 3.697843 -36.234617 0.185087 -2.074554 40.058340 -1.080075 -4.115982 -3.255304 -0.651300 -0.000000 -34.319900
3.505889 18.011318 -0.808592 13.375137 76.496640 27.367958 -11.769087 5.129389 2.718661 -3.549537 6.403302 -3.169150 -1.053475 0.736006 9.865889 0.616115 0.144858 22.795272 -0.136700 0.000000 -65.384699 9.740397 -0.649120 4.101949 1.545116 4.537824 -35.625628 0.371405 -1.828181 36.200483 -0.878898 -3.359643 -1.372576 -0.746300 0.000000 -37.377300
3.703175 18.116476 -0.704877 12.221387 75.643194 26.189016 -11.850425 5.233113 2.558037 -3.263917 7.193888 -2.588366 -0.963293 0.782936 9.691744 0.774364 1.186276 24.277292 0.310900 0.000001 -60.942500 9.588508 -0.765085 4.321111 2.058985 5.300367 -34.965187 0.573932 -1.586522 32.385751 -0.667123 -2.598325 0.525423 -0.795500 -0.000000 -40.009600
3.897181 18.210067 -0.599920 11.374642 74.781327 25.306653 -11.899347 5.309185 2.396139 -3.075338 7.804244 -2.053030 -0.872128 0.824694 9.883791 0.936807 2.650070 25.041837 1.011500 0.000000 -56.340000 9.454271 -0.873401 4.512854 2.556840 5.978518 -34.272180 0.790067 -1.350187 28.684279 -0.457166 -1.872023 2.361328 -0.801300 -0.000000 -42.127400
4.088323 18.291489 -0.493902 10.803199 73.910576 24.681572 -11.914958 5.360911 2.232841 -2.993134 8.249355 -1.547886 -0.781073 0.863726 10.421893 1.102983 4.449222 25.172605 1.900000 0.000000 -51.909001 9.340069 -0.967404 4.675609 3.035958 6.558621 -33.566919 1.014502 -1.120510 25.171431 -0.259540 -1.208599 4.057029 -0.771300 0.000000 -43.717600
4.277118 18.360236 -0.386966 10.471889 73.026533 24.272864 -11.899796 5.392685 2.067821 -3.019695 8.571829 -1.079891 -0.693222 0.902688 11.300148 1.272860 6.450502 24.771063 2.875200 0.000001 -47.895600 9.247015 -1.043267 4.809839 3.500445 7.022622 -32.881493 1.239836 -0.899917 21.927296 -0.081579 -0.620764 5.538305 -0.715300 -0.000000 -44.815701
4.464013 18.416139 -0.279148 10.383275 72.121784 24.071925 -11.852774 5.409859 1.904079 -3.173454 8.785053 -0.630183 -0.610426 0.943689 12.474048 1.449050 8.556916 23.978037 3.858800 -0.000000 -44.520901 9.179623 -1.097842 4.907226 3.951870 7.324101 -32.246847 1.457946 -0.694131 19.035239 0.076061 -0.084214 6.741877 -0.635200 0.000000 -45.527500
4.649946 18.459176 -0.171127 10.385755 71.189196 23.934960 -11.792330 5.418691 1.731575 -3.387725 9.036011 -0.280074 -0.539342 0.992276 14.002565 1.621721 10.542284 22.866276 4.707400 0.000000 -41.763800 9.128061 -1.138908 4.980242 4.440380 7.483626 -31.690889 1.664773 -0.504011 16.525844 0.209054 0.377307 7.655464 -0.549100 0.000000 -46.032300
4.835344 18.489599 -0.063164 10.443038 70.220227 23.822076 -11.723627 5.425676 1.551323 -3.646255 9.356812 -0.029530 -0.480497 1.051745 15.846167 1.787140 12.328621 21.561670 5.376700 -0.000000 -39.661200 9.091297 -1.170687 5.024572 4.987369 7.476795 -31.229294 1.857392 -0.334816 14.432872 0.320845 0.788680 8.277001 -0.458900 -0.000000 -46.488800
5.020668 18.507727 0.044391 10.479387 69.209251 23.663097 -11.657707 5.436433 1.361701 -3.904038 9.801254 0.095999 -0.433847 1.125695 17.988929 1.937563 13.834200 20.152811 5.832300 -0.000000 -38.140901 9.062402 -1.201138 5.044104 5.624729 7.315068 -30.868083 2.035918 -0.189061 12.752109 0.412842 1.148609 8.642622 -0.373000 -0.000000 -47.044200
5.206090 18.514031 0.151434 10.479153 68.153895 23.445423 -11.598948 5.454758 1.166963 -4.144613 10.365189 0.101970 -0.395780 1.215261 20.379113 2.069728 15.056029 18.730804 6.094600 -0.000001 -37.157900 9.038824 -1.235978 5.036632 6.363134 6.995433 -30.608779 2.200572 -0.070677 11.477225 0.488835 1.472849 8.797062 -0.291300 0.000000 -47.789200
5.391806 18.508962 0.257761 10.387396 67.055892 23.127766 -11.556947 5.481902 0.969039 -4.326276 11.056920 -0.028001 -0.362774 1.321144 22.989471 2.179212 15.984462 17.340394 6.180000 0.000000 -36.557700 9.011398 -1.283016 5.010910 7.217937 6.564489 -30.437762 2.353002 0.021061 10.557979 0.547360 1.731355 8.814709 -0.227100 -0.000000 -48.748700
5.577234 18.492938 0.363852 10.289425 65.921579 22.783872 -11.522437 5.517301 0.777817 -4.491915 11.790174 -0.234392 -0.327860 1.440218 25.725042 2.273071 16.722009 16.056681 6.168300 -0.000000 -36.337400 8.988576 -1.340467 4.949431 8.158015 5.978860 -30.350914 2.490828 0.078510 10.010828 0.596523 1.981389 8.720393 -0.162400 0.000000 -49.831699
